<svg xmlns="http://www.w3.org/2000/svg" viewBox="0 0 250.06 181.78"><defs><style>.a{fill:#0061ff;}</style></defs><title>logo_web</title><path class="a" d="M224.33,9H24.58a.34.34,0,0,0-.34.34v181.1a.34.34,0,0,0,.34.34H274a.34.34,0,0,0,.34-.34V59a.33.33,0,0,0-.1-.24L224.57,9.1A.35.35,0,0,0,224.33,9ZM133.66,148.8H118a.34.34,0,0,1-.34-.34V108.38a.34.34,0,0,0-.34-.34H77.28a.34.34,0,0,0-.34.34v40.08a.34.34,0,0,1-.34.34H61a.34.34,0,0,1-.34-.34V51.32A.34.34,0,0,1,61,51H76.6a.34.34,0,0,1,.34.34V91.4a.34.34,0,0,0,.34.34h40.08a.34.34,0,0,0,.34-.34V51.32A.34.34,0,0,1,118,51h15.62a.34.34,0,0,1,.34.34v97.14A.34.34,0,0,1,133.66,148.8Zm104.16-19.17-.94,1.1c-9.24,10.73-22.42,17.66-36.58,18.05a48.91,48.91,0,1,1,32.94-83.73.37.37,0,0,1,0,.5l-11,11.06a.34.34,0,0,1-.47,0,32.61,32.61,0,1,0-.24,46.79.36.36,0,0,0,.11-.26V108.38a.34.34,0,0,0-.34-.34H197.48a.34.34,0,0,1-.34-.34V92.08a.34.34,0,0,1,.34-.34h40.08a.34.34,0,0,1,.34.34v37.33A.35.35,0,0,1,237.82,129.63Z" transform="translate(-24.24 -9)"/></svg>